<!-- icon666.com - MILLIONS OF FREE VECTOR ICONS --><svg viewBox="0 0 64 64" xmlns="http://www.w3.org/2000/svg"><g id="Layer_34"><path d="m42 3c1.105 0 2 .895 2 2v38.06c0-.06 0 8.94 0 8.94h-10-20c-1.105 0-2-.895-2-2v-45c0-1.105.895-2 2-2z" fill="#778ca3" style="fill: rgb(204, 206, 209);"></path><path d="m16 7h24v13h-24z" fill="#45aaf2"></path><g fill="#d1d8e0"><path d="m18 26h4v4h-4z" fill="#d1d8e0"></path><path d="m26 26h4v4h-4z" fill="#d1d8e0"></path><path d="m34 26h4v4h-4z" fill="#d1d8e0"></path><path d="m18 34h4v4h-4z" fill="#d1d8e0"></path><path d="m26 34h4v4h-4z" fill="#d1d8e0"></path><path d="m34 34h4v4h-4z" fill="#d1d8e0"></path><path d="m18 42h4v4h-4z" fill="#d1d8e0"></path><path d="m26 42h4v4h-4z" fill="#d1d8e0"></path><path d="m38 42v2.52c0 .48-1 1.48-1.7 1.48h-2.3v-4z" fill="#d1d8e0"></path></g><path d="m52 52c0 4.97-4.03 9-9 9s-9-4.03-9-9c0-2.3.87-4.41 2.3-6 .5-.56 1.07-1.06 1.7-1.48 1.43-.96 3.15-1.52 5-1.52.34 0 .67.02 1 .06 4.5.49 8 4.31 8 8.94z" fill="#fed330"></path><g fill="#4b6584"><path d="m42.5 50h2.5c.552 0 1-.448 1-1s-.448-1-1-1h-1v-1c0-.552-.448-1-1-1s-1 .448-1 1v1.051c-1.14.232-2 1.242-2 2.449 0 1.378 1.122 2.5 2.5 2.5h1c.276 0 .5.224.5.5s-.224.5-.5.5h-2.5c-.552 0-1 .448-1 1s.448 1 1 1h1v1c0 .552.448 1 1 1s1-.448 1-1v-1.051c1.14-.232 2-1.242 2-2.449 0-1.378-1.122-2.5-2.5-2.5h-1c-.276 0-.5-.224-.5-.5s.224-.5.5-.5z" fill="#4b6584"></path><path d="m45 42.205v-37.205c0-1.654-1.346-3-3-3h-28c-1.654 0-3 1.346-3 3v45c0 1.654 1.346 3 3 3h19.051c.503 5.046 4.773 9 9.949 9 5.514 0 10-4.486 10-10 0-4.811-3.386-8.874-8-9.795zm-11.947 8.795h-19.053c-.551 0-1-.449-1-1v-45c0-.551.449-1 1-1h28c.551 0 1 .449 1 1v37.006c-1.372-.004-2.739.277-4 .83v-.836c0-.552-.448-1-1-1h-4c-.552 0-1 .448-1 1v4c0 .552.448 1 1 1h.351c-.71 1.223-1.156 2.583-1.298 4zm3.947-8v1.028c-.392.295-.762.619-1.108.972h-.892v-2zm6 17c-4.411 0-8-3.589-8-8 0-1.973.726-3.866 2.046-5.334.451-.505.958-.947 1.511-1.316 1.317-.883 2.853-1.35 4.443-1.35.299 0 .589.018.892.054 4.052.441 7.108 3.857 7.108 7.946 0 4.411-3.589 8-8 8z" fill="#4b6584"></path><path d="m41 20v-13c0-.552-.448-1-1-1h-24c-.552 0-1 .448-1 1v13c0 .552.448 1 1 1h24c.552 0 1-.448 1-1zm-2-1h-22v-11h22z" fill="#4b6584"></path><path d="m22 25h-4c-.552 0-1 .448-1 1v4c0 .552.448 1 1 1h4c.552 0 1-.448 1-1v-4c0-.552-.448-1-1-1zm-1 4h-2v-2h2z" fill="#4b6584"></path><path d="m30 25h-4c-.552 0-1 .448-1 1v4c0 .552.448 1 1 1h4c.552 0 1-.448 1-1v-4c0-.552-.448-1-1-1zm-1 4h-2v-2h2z" fill="#4b6584"></path><path d="m38 25h-4c-.552 0-1 .448-1 1v4c0 .552.448 1 1 1h4c.552 0 1-.448 1-1v-4c0-.552-.448-1-1-1zm-1 4h-2v-2h2z" fill="#4b6584"></path><path d="m22 33h-4c-.552 0-1 .448-1 1v4c0 .552.448 1 1 1h4c.552 0 1-.448 1-1v-4c0-.552-.448-1-1-1zm-1 4h-2v-2h2z" fill="#4b6584"></path><path d="m30 33h-4c-.552 0-1 .448-1 1v4c0 .552.448 1 1 1h4c.552 0 1-.448 1-1v-4c0-.552-.448-1-1-1zm-1 4h-2v-2h2z" fill="#4b6584"></path><path d="m38 33h-4c-.552 0-1 .448-1 1v4c0 .552.448 1 1 1h4c.552 0 1-.448 1-1v-4c0-.552-.448-1-1-1zm-1 4h-2v-2h2z" fill="#4b6584"></path><path d="m22 41h-4c-.552 0-1 .448-1 1v4c0 .552.448 1 1 1h4c.552 0 1-.448 1-1v-4c0-.552-.448-1-1-1zm-1 4h-2v-2h2z" fill="#4b6584"></path><path d="m30 41h-4c-.552 0-1 .448-1 1v4c0 .552.448 1 1 1h4c.552 0 1-.448 1-1v-4c0-.552-.448-1-1-1zm-1 4h-2v-2h2z" fill="#4b6584"></path></g></g></svg>